# xmcd
#
# Track frame offsets:
#	150
#	15251
#	28282
#	47879
#	60301
#	99570
#	123724
#	137451
#	155348
#	173591
#	214219
#	232453
#	269622
#	301422
#
# Disc length: 4361 seconds
#
# Revision: 0
# Processed by: cddbd v1.5.2PL0 Copyright (c) Steve Scherf et al.
# Submitted via: EZCDAudioConverter 7.0.6.1
#
DISCID=c411070e
DTITLE=Revolution: Underground Sounds Of 1968 2/3
DYEAR=1900
DGENRE=
TTITLE0=Jeff Beck - Shapes Of Things
TTITLE1=Fleetwood Mac - Black Magic Woman
TTITLE2=Traffic - Pearly Queen
TTITLE3=Van Der Graaf Generator - People You Were Going To
TTITLE4=Second Hand - Reality
TTITLE5=Eyes Of Blue - Love Is The Law
TTITLE6=John Martyn - Dusty
TTITLE7=Eclection - In Her Mind
TTITLE8=Love Sculpture - Summertime
TTITLE9=John Mayall - Fly Tomorrow
TTITLE10=Caravan - Place Of My Own
TTITLE11=Ten Years After - No Title
TTITLE12=The Crazy World Of Arthur Brown - Child Of My Kingdom
TTITLE13=The Gods - I Never Knew
EXTD=
EXTT0=
EXTT1=
EXTT2=
EXTT3=
EXTT4=
EXTT5=
EXTT6=
EXTT7=
EXTT8=
EXTT9=
EXTT10=
EXTT11=
EXTT12=
EXTT13=
PLAYORDER=
